<svg xmlns="http://www.w3.org/2000/svg" viewBox="0 0 24 24">
  <!-- Head -->
  <circle cx="16" cy="3.5" r="2"/>
  <!-- Body: torso leaning forward -->
  <path d="M15.2 5.3 C14.4 7.2 13.5 9.4 12.3 12.2 L13.7 12.8 C14.8 10.2 15.7 8 16.5 6 Z"/>
  <!-- Back arm reaching back -->
  <path d="M14.8 8.2 L20 6.5 L19.6 5.2 L13.8 7.2 Z"/>
  <!-- Front arm reaching forward -->
  <path d="M13.8 8.8 L8.2 11.8 L8.9 13 L14.5 10 Z"/>
  <!-- Back leg -->
  <path d="M13.2 12.5 L15.8 17.2 L17 16.5 L14.4 11.8 Z"/>
  <!-- Front leg bent -->
  <path d="M12.5 12.8 L9.5 17.2 L10.7 17.8 L13.8 13.4 Z"/>
  <!-- Surfboard -->
  <path d="M4.5 18.2 C8 16.5 13.5 16 21 18.2 C21.5 18.4 21.5 19 21 19.2 C14 17.2 8 17.5 4 19.2 C3.5 19 3.8 18.4 4.5 18.2 Z"/>
  <!-- Wave -->
  <path d="M1 21.5 C2.5 20 4.5 20 6 21.5 C7.5 23 9.5 23 11 21.5 C12.5 20 14.5 20 16 21.5 C17 22.5 18.5 22.5 20 21.8 L20.5 22.8 C18.5 23.8 16.5 23.5 15 22 C13.5 20.5 11.5 20.5 10 22 C8.5 23.5 6.5 23.5 5 22 C3.5 20.5 2 20.5 1 21.5 Z"/>
</svg>
